{
	"asset":{
		"generator":"Khronos glTF Blender I/O v4.1.63",
		"version":"2.0"
	},
	"scene":0,
	"scenes":[
		{
			"extras":{
				"bc":{
					"snap":{
						"hit":false
					}
				}
			},
			"name":"Scene",
			"nodes":[
				0
			]
		}
	],
	"nodes":[
		{
			"extras":{
				"hops":{}
			},
			"mesh":0,
			"name":"teen10"
		}
	],
	"materials":[
		{
			"name":"teen10",
			"pbrMetallicRoughness":{
				"baseColorTexture":{
					"index":0
				},
				"metallicFactor":0
			}
		},
		{
			"name":"teen10 2",
			"pbrMetallicRoughness":{
				"baseColorTexture":{
					"index":1
				},
				"metallicFactor":0
			}
		}
	],
	"meshes":[
		{
			"extras":{
				"hops":{}
			},
			"name":"teen10",
			"primitives":[
				{
					"attributes":{
						"POSITION":0,
						"NORMAL":1,
						"TEXCOORD_0":2,
						"TEXCOORD_1":3
					},
					"indices":4,
					"material":0
				},
				{
					"attributes":{
						"POSITION":5,
						"NORMAL":6,
						"TEXCOORD_0":7,
						"TEXCOORD_1":8
					},
					"indices":9,
					"material":1
				}
			]
		}
	],
	"textures":[
		{
			"sampler":0,
			"source":0
		},
		{
			"sampler":0,
			"source":0
		}
	],
	"images":[
		{
			"mimeType":"image/png",
			"name":"objects",
			"uri":"objects.png"
		}
	],
	"accessors":[
		{
			"bufferView":0,
			"componentType":5126,
			"count":495,
			"max":[
				18.909292221069336,
				24.979785919189453,
				9.847841262817383
			],
			"min":[
				-20.54591178894043,
				-0.035718001425266266,
				-10.458011627197266
			],
			"type":"VEC3"
		},
		{
			"bufferView":1,
			"componentType":5126,
			"count":495,
			"type":"VEC3"
		},
		{
			"bufferView":2,
			"componentType":5126,
			"count":495,
			"type":"VEC2"
		},
		{
			"bufferView":3,
			"componentType":5126,
			"count":495,
			"type":"VEC2"
		},
		{
			"bufferView":4,
			"componentType":5123,
			"count":918,
			"type":"SCALAR"
		},
		{
			"bufferView":5,
			"componentType":5126,
			"count":182,
			"max":[
				29,
				14,
				5
			],
			"min":[
				-31,
				0,
				-5
			],
			"type":"VEC3"
		},
		{
			"bufferView":6,
			"componentType":5126,
			"count":182,
			"type":"VEC3"
		},
		{
			"bufferView":7,
			"componentType":5126,
			"count":182,
			"type":"VEC2"
		},
		{
			"bufferView":8,
			"componentType":5126,
			"count":182,
			"type":"VEC2"
		},
		{
			"bufferView":9,
			"componentType":5123,
			"count":228,
			"type":"SCALAR"
		}
	],
	"bufferViews":[
		{
			"buffer":0,
			"byteLength":5940,
			"byteOffset":0,
			"target":34962
		},
		{
			"buffer":0,
			"byteLength":5940,
			"byteOffset":5940,
			"target":34962
		},
		{
			"buffer":0,
			"byteLength":3960,
			"byteOffset":11880,
			"target":34962
		},
		{
			"buffer":0,
			"byteLength":3960,
			"byteOffset":15840,
			"target":34962
		},
		{
			"buffer":0,
			"byteLength":1836,
			"byteOffset":19800,
			"target":34963
		},
		{
			"buffer":0,
			"byteLength":2184,
			"byteOffset":21636,
			"target":34962
		},
		{
			"buffer":0,
			"byteLength":2184,
			"byteOffset":23820,
			"target":34962
		},
		{
			"buffer":0,
			"byteLength":1456,
			"byteOffset":26004,
			"target":34962
		},
		{
			"buffer":0,
			"byteLength":1456,
			"byteOffset":27460,
			"target":34962
		},
		{
			"buffer":0,
			"byteLength":456,
			"byteOffset":28916,
			"target":34963
		}
	],
	"samplers":[
		{
			"magFilter":9729,
			"minFilter":9987
		}
	],
	"buffers":[
		{
			"byteLength":29372,
			"uri":"teen10.bin"
		}
	]
}
